<svg id="Layer_1" data-name="Layer 1" xmlns="http://www.w3.org/2000/svg" viewBox="0 0 228.13 242.61"><defs><style>.cls-1{fill:#fff;}</style></defs><path class="cls-1" d="M240.11,266.43v8.85a33,33,0,0,0-22.47,1.36,31.49,31.49,0,0,0-10.9,8.17A26.72,26.72,0,0,0,203,292a27,27,0,0,0-1.36,10.89c0,15.82.64,31.66.59,47.45,0,6.4-1.17,13.12-5.18,18.12a23.47,23.47,0,0,1-9.89,6.9c-.6.24-8.67,2.78-8.67,2.08v20.09A25.29,25.29,0,0,1,201.3,421q-.11,16.53-.2,33.07c-.06,9.56-1.89,20.38,2,29.41,2.73,6.35,8.24,11.28,14.57,14.06,1.82.8,22.44,5.66,22.44,2.47v8.51c0,1.73-19.29-1-21.06-1.49a35.33,35.33,0,0,1-18.51-12.74c-7.33-9.81-7.4-20.44-7.28-32,.08-7,0-14,.09-21,0-6.19,1.5-14.31.12-20.32a20.78,20.78,0,0,0-6.13-11.21c-6.33-5.71-14.75-5-16.68-4.76q-.34-17-.68-34c1.46.17,10.17,1.08,17-5.11a20.58,20.58,0,0,0,5.79-9.19c1.43-4.65.12-11.91.17-16.81q.1-9.25.2-18.5c.11-10.43-1.59-22.12,2.12-32.1a33.32,33.32,0,0,1,8.16-12.17C214,266.92,226.41,266.43,240.11,266.43Z" transform="translate(-169.98 -266.43)"/><path class="cls-1" d="M328,266.43v8.85a33,33,0,0,1,22.47,1.36,31.53,31.53,0,0,1,10.89,8.17,26.7,26.7,0,0,1,5.11,18c0,15.82-.64,31.66-.59,47.45,0,6.4,1.17,13.12,5.17,18.12a23.53,23.53,0,0,0,9.89,6.9c.61.24,8.68,2.78,8.68,2.08v20.09A25.29,25.29,0,0,0,366.79,421q.09,16.53.2,33.07c.05,9.56,1.88,20.38-2,29.41-2.73,6.35-8.25,11.28-14.58,14.06-1.81.8-22.43,5.66-22.43,2.47v8.51c0,1.73,19.29-1,21-1.49a35.33,35.33,0,0,0,18.51-12.74c7.33-9.81,7.4-20.44,7.28-32-.07-7,0-14-.08-21,0-6.19-1.51-14.31-.12-20.32a20.75,20.75,0,0,1,6.12-11.21c6.33-5.71,14.75-5,16.69-4.76q.33-17,.68-34c-1.46.17-10.18,1.08-17-5.11a20.58,20.58,0,0,1-5.79-9.19c-1.43-4.65-.13-11.91-.18-16.81q-.09-9.25-.19-18.5c-.11-10.43,1.59-22.12-2.13-32.1a33.07,33.07,0,0,0-8.16-12.17C354.13,266.92,341.68,266.43,328,266.43Z" transform="translate(-169.98 -266.43)"/><path class="cls-1" d="M256.28,318.51V358a59.76,59.76,0,0,0-30.81,41.7,57.48,57.48,0,0,0,14.64,51.24,60.33,60.33,0,0,0,41.53,18.72A62.79,62.79,0,0,0,328,451.11a57,57,0,0,0,15.28-38.47,51.12,51.12,0,0,0-14-41,57.53,57.53,0,0,0-17.53-13.79q.08-19.66.17-39.32h7.2c2.94,0,7.6-.91,9.55,1.87a3.77,3.77,0,0,1,.22,4c-1.52,2.51-6.71,1.43-9.14,1.43l-.34,28.26A65.21,65.21,0,0,1,346,386.43a69.66,69.66,0,0,1,3.4,38.63,62.62,62.62,0,0,1-4.25,13.11,67.15,67.15,0,0,1-30.3,31.49A64.54,64.54,0,0,1,294.4,476a60.33,60.33,0,0,1-41.53-6.3,63,63,0,0,1-30.13-32.34,83.77,83.77,0,0,1-3.4-44.77,66.51,66.51,0,0,1,12.94-24.14,65.8,65.8,0,0,1,16.17-13.81V326.17c0-.08-5.24,0-5.59.05a4.24,4.24,0,0,1-2.88-.69,3.62,3.62,0,0,1-1.13-3,4.79,4.79,0,0,1,.7-2.39c1.41-2.2,3.94-1.67,6.14-1.67Z" transform="translate(-169.98 -266.43)"/><path class="cls-1" d="M229.55,407.7c-.07,3.44-.15,25.36,17.54,41.7,15,13.91,32.89,14.46,37.13,14.47,3.6-.14,26.87-1.45,42.52-21.1a57,57,0,0,0,12.09-35.07,32.32,32.32,0,0,1-12.6,3.58A32.66,32.66,0,0,1,309,407.7a54.48,54.48,0,0,0-48.17,0,36,36,0,0,1-31.32,0Z" transform="translate(-169.98 -266.43)"/><circle class="cls-1" cx="102.47" cy="88" r="8.34"/><circle class="cls-1" cx="120.09" cy="116.43" r="8.34"/><circle class="cls-1" cx="125.69" cy="56.47" r="10.17"/><circle class="cls-1" cx="109.72" cy="13.96" r="11.96"/></svg>