<svg id="Layer_1" data-name="Layer 1" xmlns="http://www.w3.org/2000/svg" viewBox="0 0 384 287.66"><defs><style>.cls-1{fill:#fff;}</style></defs><path class="cls-1" d="M105.5,357.66V535a36.62,36.62,0,0,0,10.69,19.75,37.13,37.13,0,0,0,24.51,9.87H459c2.55-.39,15.72-2.64,24.17-14.64a35.53,35.53,0,0,0,6.33-19.4V357.66l-151,100.43a60.9,60.9,0,0,1-37.79,16c-23.23,1.15-38.91-11.79-42.21-14.64Z" transform="translate(-105.5 -276.98)"/><path class="cls-1" d="M135.6,277H460.36a35.85,35.85,0,0,1,17.36,60.93l-158,105.2a35.29,35.29,0,0,1-45.28,0L115.17,335.87c-1.16-1.41-11.94-14.94-7.49-32.34A37,37,0,0,1,135.6,277Z" transform="translate(-105.5 -276.98)"/></svg>