<svg id="Layer_1" data-name="Layer 1" xmlns="http://www.w3.org/2000/svg" viewBox="0 0 490.19 490.19"><defs><style>.cls-1{fill:#1876f0;}.cls-2{fill:#fff;}</style></defs><path class="cls-1" d="M667.9,295.48c0-135.36-109.74-245.09-245.1-245.09S177.71,160.12,177.71,295.48c0,122.49,89.86,224,207.25,242.19V371.38h-63v-71.9h63v-67a94.26,94.26,0,0,1,36-67.07,104.39,104.39,0,0,1,51.8-16c9.46-.15,19.83.11,31,1,10.45.86,20.13,2.18,28.94,3.74v61.62c-7.37-.5-13.45-.47-17.7-.34-14.48.42-24.26.81-34.39,6.12-3.73,2-7.69,4.41-10.47,7.62a32.85,32.85,0,0,0-4.58,7.92c-3.79,8.22-2.72,17.91-2.77,26.8l-.16,25.43-.06,10.12h67.75L520.06,370.7l-57.87.68.33,166C579,518.37,667.9,417.32,667.9,295.48Z" transform="translate(-177.71 -50.39)"/><path class="cls-2" d="M520.06,370.7l10.22-71.22H462.53l.06-10.12.16-25.43c.05-8.89-1-18.58,2.77-26.8a32.85,32.85,0,0,1,4.58-7.92c2.78-3.21,6.74-5.66,10.47-7.62,10.13-5.31,19.91-5.7,34.39-6.12,4.25-.13,10.33-.16,17.7.34V154.19c-8.81-1.56-18.49-2.88-28.94-3.74-11.15-.92-21.52-1.18-31-1a104.39,104.39,0,0,0-51.8,16,94.26,94.26,0,0,0-36,67.07v67h-63v71.9h63V537.67a247,247,0,0,0,77.56-.31l-.33-166Z" transform="translate(-177.71 -50.39)"/></svg>