<svg id="Layer_1" data-name="Layer 1" xmlns="http://www.w3.org/2000/svg" viewBox="0 0 481.53 481.53"><defs><style>.cls-1{fill:#2967b0;}.cls-2{fill:#fff;}</style></defs><circle class="cls-1" cx="240.77" cy="240.77" r="240.77"/><circle class="cls-2" cx="135.85" cy="122.04" r="34.21"/><rect class="cls-2" x="106.23" y="181.55" width="59.74" height="192" rx="5.21"/><path class="cls-2" d="M378.28,230.16V419.37a1.39,1.39,0,0,0,1.39,1.39h58.49a1.39,1.39,0,0,0,1.39-1.39V309.17a33.86,33.86,0,0,1,8.68-22c12.2-13.29,34.41-14.36,47-1,9.59,10.18,8.42,22.9,8.18,24.95,0,.05,0,.1,0,.15V419.37a1.4,1.4,0,0,0,1.4,1.39h58a1.39,1.39,0,0,0,1.39-1.39V297.64c0-20.77-8.94-45.27-24.82-59.18-11.31-9.9-25.81-12.85-40.42-13.43-15.27-.6-31,2.57-44,10.86a61.56,61.56,0,0,0-17.38,16.74,1.39,1.39,0,0,1-2.53-.8V230.16a1.4,1.4,0,0,0-1.4-1.4H379.67A1.4,1.4,0,0,0,378.28,230.16Z" transform="translate(-176.06 -47.21)"/></svg>