<svg id="Layer_1" data-name="Layer 1" xmlns="http://www.w3.org/2000/svg" viewBox="0 0 410.93 411.46"><defs><style>.cls-1{fill:#fff;}</style></defs><path class="cls-1" d="M147.51,215l-49.7,49a69.1,69.1,0,0,0-10.25,24.77c-2.41,12.24-.75,21.91,1.06,32.42a137.34,137.34,0,0,0,9.19,31,374.36,374.36,0,0,0,76.25,121.88A486.87,486.87,0,0,0,352.11,608.55a122.63,122.63,0,0,0,36.42,10.9c9.65,1.29,20.19,2.7,33.24-.78a69.53,69.53,0,0,0,25.32-12.84l37.78-38.13c1.73-1.81,15.16-16.4,11.92-36.42a42,42,0,0,0-11.92-22.81l-61.61-60.26c-2.81-1.52-16-8.3-32.05-3.74a42.61,42.61,0,0,0-21.4,14.3c-.26,1.63-3.94,22.46-23.49,31.32-16.08,7.27-31,1.05-33.36,0a159.74,159.74,0,0,1-74.22-58.22,149.13,149.13,0,0,1-20.08-33.36c-4.34-10.06-5.58-16.21-5.45-22.47a44.64,44.64,0,0,1,3.41-16,47.77,47.77,0,0,1,12.68-13.32c5.21-3.65,8.51-4.29,14.89-8.12a73.13,73.13,0,0,0,14-10.9,42.2,42.2,0,0,0,5.79-25.87,42.77,42.77,0,0,0-14.3-27.23l-57.19-57.54a41.61,41.61,0,0,0-44.94-2Z" transform="translate(-86.36 -209.4)"/></svg>